<svg xmlns="http://www.w3.org/2000/svg" width="400" height="400"><path d="M186.898.542C17.809 12.845-61.135 215.422 55.421 337.921c103.322 108.589 286.535 67.729 334.127-74.515C434.412 129.312 327.265-9.671 186.898.542m37.701 3.968c120.583 16.232 198 133.865 164.634 250.157C352.593 382.37 200.926 437.642 90.374 363.58-13.25 294.159-26.904 147.318 62.101 59.516c33.19-32.741 73.19-50.995 122.658-55.974 5.624-.566 33.47.111 39.84.968M188.77 29.144v10.428h3.743v-3.103c0-3.011 3.334-8.092 4.105-6.255.123.294 1.374 2.46 2.781 4.813l2.557 4.278 2.787.162 2.787.163-3.049-4.708c-1.677-2.59-3.514-5.489-4.084-6.444l-1.035-1.736 3.596-3.879 3.596-3.879-2.609-.175-2.608-.174-4.011 4.325c-4.904 5.289-4.813 5.289-4.813.035v-4.278h-3.743v10.427m22.728-2.215c-1.346 11.156.172 13.703 8.277 13.889 5.776.133 6.766-1.385 8.437-12.929l1.016-7.019-1.805-.339c-.992-.186-1.93-.213-2.084-.059-.226.226-2.288 12.977-2.332 14.421-.07 2.27-4.376 3.201-6.625 1.432-1.677-1.32-1.757-2.655-.607-10.122 1.165-7.558 1.177-7.486-1.242-7.486h-2.044l-.991 8.212m-39.199-6.615c-2.265.536-1.782-.706-4.418 11.36-2.554 11.686-2.556 11.172.037 10.646 1.71-.346 1.909-.587 2.349-2.847l.481-2.469 4.304-.669c2.476-.385 4.374-.465 4.468-.187 1.113 3.294 4.367 4.885 6.46 3.158.225-.186-11.338-19.494-11.648-19.449-.148.021-1.062.227-2.033.457m63.257 2.28c-.563 1.576-4.526 19.31-4.353 19.482.299.299 11.734 2.834 12.808 2.839 4.464.022 7.314-6.461 4.112-9.358-.987-.893-.964-.963.833-2.659 4.197-3.958 1.752-7.617-6.443-9.64-6.169-1.523-6.634-1.568-6.957-.664m-80.208 1.317c-1.981.476-1.985 1.095-.054 7.829 2.358 8.224 2.434 9.762.526 10.632-1.261.574-1.529.488-2.694-.867-2.297-2.67-5.578-.773-3.678 2.127 2.998 4.575 11.145 2.665 11.876-2.785.342-2.552-3.578-17.424-4.549-17.256a36.19 36.19 0 00-1.427.32m19.985 5c2.059 3.747 2.106 3.597-1.256 4.058l-2.577.353.356-1.421c.197-.781.505-2.503.687-3.827.427-3.112.656-3.044 2.79.837m67.345-2.096c6.343 1.547 5.257 6.106-1.141 4.787-4.017-.828-3.762-.559-3.049-3.206.657-2.437.665-2.44 4.19-1.581m14.356 11.101c-8.135 8.937-8.024 8.742-5.439 9.535 1.762.541 1.952.471 3.5-1.293l1.637-1.864 3.987 1.454 3.987 1.454v2.595c0 2.425 2.912 5.223 4.149 3.986 1.042-1.041-.617-22.704-1.76-22.991a21.658 21.658 0 01-1.989-.601c-.506-.194-3.275 2.456-8.072 7.725m-14.537-2.397c5.54 1.604 3.234 6.365-2.514 5.191-4.192-.857-4.203-.869-3.487-3.967.658-2.846.505-2.815 6.001-1.224m22.209 3.786c0 4.442-.06 4.496-3.395 3.022l-2.058-.91 2.575-3.061c1.415-1.684 2.642-3.062 2.726-3.062.083 0 .152 1.805.152 4.011m-145.554-2.388c-2.772 1.464-2.762 1.379-.977 8.159.886 3.366 1.606 6.452 1.6 6.859-.006.406-2.243-1.649-4.971-4.567l-4.96-5.306-2.764 1.553-2.764 1.554 2.46 4.555a716.891 716.891 0 005.094 9.23l2.633 4.676 1.572-.813c1.976-1.021 2.11-.416-1.565-7.106-1.725-3.141-3.449-6.313-3.831-7.048-.628-1.21 4.747 4.251 9.047 9.191l1.716 1.972 1.8-1.062 1.8-1.061-2.054-7.796c-1.13-4.288-1.855-7.585-1.612-7.328.243.258 1.823 2.996 3.511 6.084 4.224 7.728 3.75 7.335 6.566 5.446.79-.531-8.715-18.3-9.765-18.256-.311.013-1.452.492-2.536 1.064m167.269 5.049l-.868 1.325 4.009 2.285c4.871 2.776 4.859 2.649.411 4.315-11.803 4.419-12.442 4.725-13.288 6.36-.455.881-.75 1.665-.655 1.742.848.682 14.464 8.369 14.581 8.231 1.076-1.272 1.452-2.853.777-3.267-.41-.252-2.637-1.549-4.947-2.882-4.991-2.879-5.289-2.487 4.802-6.299 7.463-2.819 10.525-4.792 9.178-5.914-.487-.405-12.614-7.22-12.849-7.22-.156 0-.674.596-1.151 1.324m-149.957 6.295c-1.226.59-1.301 2.581-.144 3.77.324.333 2.506-.27 3.693-1.02.309-.195-1.526-3.419-1.925-3.381-.213.02-.944.304-1.624.631m-38.762 1.608l-1.495 1.201 5.698 8.422c5.978 8.836 6.149 8.99 8.201 7.413l1.282-.986-5.828-8.612c-3.205-4.736-5.948-8.617-6.095-8.625-.147-.007-.94.527-1.763 1.187m208.492 15.043c-7.443 8.542-7.259 8.206-5.282 9.649l1.414 1.031 2.594-2.822 2.595-2.822 2.259 1.841c4.825 3.934 7.431 4.18 10.61 1.001 3.862-3.862 2.948-6.582-4.334-12.891l-3.128-2.709-6.728 7.722m11.428 1.542c2.035 3.564-1.826 5.439-5.484 2.664-2.384-1.809-2.391-1.937-.24-4.4l1.738-1.989 1.605 1.182c.882.65 1.954 1.794 2.381 2.543m-239.78-.715l-1.502 1.569 4.182 10.481 4.182 10.482 1.575-1.576 1.575-1.575-.912-2.28-.913-2.28 2.961-2.96 2.96-2.961 2.297 1.116 2.297 1.116 1.788-1.492 1.788-1.493-1.531-.787c-1.889-.971-18.918-8.928-19.108-8.928-.075 0-.813.706-1.639 1.568m7.598 5.557l3.354 1.726-2.131 2.08-2.13 2.08-.504-1.291c-.277-.711-1-2.435-1.606-3.832-1.296-2.989-1.306-2.987 3.017-.763m-18.636 5.502l-1.296 1.397 7.487 7.131 7.486 7.131 1.522-1.442 1.521-1.443-7.404-7.071c-8.397-8.02-7.612-7.539-9.316-5.703m254.586 2.414c-10.908 4.382-10.422 4.054-8.864 5.989 1.206 1.5 1.232 1.505 3.234.669 2.91-1.216 3.103-1.146 5.916 2.147l2.554 2.989-1.115 2.294-1.114 2.294 1.561 1.496c1.917 1.836 1.169 2.83 6.601-8.772l4.594-9.81-1.202-1.524c-1.61-2.04-1.478-2.065-12.165 2.228m8.022 1.285c0 .683-3.264 6.665-3.618 6.63-.519-.051-3.532-3.685-3.27-3.945.833-.824 6.888-3.185 6.888-2.685M58.625 85.921c-1.554 2.142-1.755 2.712-1.193 3.381 3.953 4.703 8.343 10.15 8.343 10.353 0 .14-3.048-.924-6.775-2.364l-6.775-2.618-.845 1.158a80.268 80.268 0 00-1.801 2.612l-.956 1.454 8.443 6.141c8.434 6.134 8.443 6.139 9.366 4.998 1.489-1.842 1.21-2.245-4.266-6.152-8.803-6.281-8.953-6.201 2.777-1.467 5.74 2.316 5.315 2.292 6.674.383l1.102-1.547-4.766-5.654c-6.857-8.134-6.943-8.115 3.17-.688l4.011 2.946.924-1.167c1.461-1.844 1.304-2.041-5.603-7.051a1358.552 1358.552 0 01-8.256-6.022l-1.705-1.271-1.869 2.575m276.965 7.931c-9.754 6.846-9.193 6.286-7.976 7.956 1.302 1.788 1.356 1.779 5.114-.857l3.219-2.258 1.034 1.276c1.192 1.472 1.044 2.669-.933 7.534-1.584 3.899-1.584 3.883.012 6.232l1.3 1.914.889-2.076c1.617-3.775 2.393-6.205 2.393-7.491 0-1.458.383-1.552 1.84-.45 2.98 2.254 8.855-.669 8.855-4.407 0-1.6-2.261-5.747-5.651-10.365-2.309-3.145-.651-3.637-10.096 2.992m9.552 2.343c2.754 3.752 2.346 6.845-.842 6.386-1.042-.15-5.252-4.833-5.26-5.851-.002-.243 3.477-2.889 4.096-3.115.049-.018.951 1.143 2.006 2.58m-254.48 3.366c.21.683.713 1.891 1.117 2.685.51 1.002.734 3.546.734 8.31 0 8.068.733 11.433 3.739 17.169 2.077 3.964 2.232 4.895.814 4.895-4.426 0-3.416 9.127 1.23 11.111 1.991.851 8.043 7.953 6.162 7.231-.646-.248-.77-.148-.452.367.293.474.231.58-.189.321-.344-.213-.495-.599-.335-.858.161-.259-1.46-1.647-3.601-3.084-5.799-3.893-8.972-5.642-8.972-4.947 0 .34-.233.473-.519.297-.96-.593-1.171 2.226-.319 4.265.464 1.111 1.459 4.333 2.21 7.161.752 2.828 1.723 6.074 2.159 7.214.436 1.139.722 2.132.636 2.204-.086.073-.934.529-1.885 1.012-5.456 2.775-3.252 12.613 2.827 12.624.604.001 1.915.844 2.912 1.874 2.301 2.373 1.992 2.347-3.22-.274-2.346-1.179-4.266-1.887-4.266-1.572 0 .314-.193.453-.428.308-1.372-.849-1.528 1.747-.285 4.775.717 1.749 1.803 4.985 2.413 7.191 1.359 4.916 3.242 9.26 5.029 11.603.741.971 1.154 1.769.918 1.774-.235.004-.067.238.374.519.552.352.187.413-1.172.195-4.251-.683-12.157 4.563-15.388 10.21-4.99 8.722-3.979 23.088 2.128 30.244l1.597 1.872-.365-3.476c-.201-1.912-.288-4.318-.195-5.348.094-1.029.198-2.39.232-3.024.034-.633.28-1.017.547-.852.268.166.344-.241.17-.906-.174-.663-.178-1.068-.009-.9.168.169.952-.71 1.742-1.952 5.38-8.468 16.828-9.996 22.691-3.028.843 1.002 1.403 1.32 1.575.894.15-.37.285-.233.309.314.023.535.799 2.072 1.723 3.416.925 1.344 2.127 3.794 2.671 5.444l.989 3.001-.231-3.133c-.213-2.881-.166-3.053.594-2.139.727.874.725.823-.009-.423-.46-.779-1.176-2.824-1.591-4.545-.416-1.721-.924-3.611-1.13-4.199-.246-.704-.094-.612.445.267.982 1.601 2.892 7.116 3.243 9.359.137.882.489 2.687.782 4.01.646 2.928.668 7.37.043 8.824-.399.929-.465.864-.498-.49-.02-.858-.185-1.412-.366-1.231-.311.311.069 2.79 2.533 16.531 9.754 54.402 74.331 81.866 120.791 51.373 20.39-13.384 35.828-38.891 35.828-59.198 0-1.771 2.228-13.559 3.208-16.973.31-1.081 1.4-3.181 2.422-4.666 1.021-1.485 1.861-3.127 1.865-3.649.005-.54.177-.715.401-.407.243.334.847.078 1.577-.668.652-.666.938-1.21.637-1.21-.301 0-.405-.23-.231-.512.174-.281.645-.385 1.047-.231.402.155.888.027 1.08-.284.222-.36-.001-.434-.614-.204-.787.295-.849.22-.341-.407.343-.423.626-1.003.629-1.29.002-.287.297-.619.654-.738.364-.121.49.042.286.371-.199.323.67.119 1.931-.453 3.213-1.458 7.479-1.38 10.871.2 2.569 1.196 7.203 5.682 7.195 6.965-.002.327-.985-.552-2.186-1.953-1.2-1.401-2.636-2.789-3.191-3.086-.554-.297.169.637 1.607 2.075 4.62 4.62 5.66 7.311 5.564 14.401l-.082 6.03 2.164-3.021c2.699-3.769 4.132-8.248 4.52-14.12.33-5.002-.575-10.963-1.571-10.347-.376.232-.463.043-.244-.528.446-1.164-.114-2.586-.842-2.136-.361.224-.44.015-.215-.572.219-.571-.154-1.672-.979-2.885-.733-1.079-1.333-1.618-1.333-1.198 0 .462-.735.051-1.863-1.043-2.153-2.087-2.058-2.968.111-1.035.799.712 1.12.862.714.334-.406-.528-1.482-1.482-2.39-2.118-1.17-.82-1.438-.891-.918-.243.989 1.233.639 1.159-2.311-.49-1.383-.773-3.519-1.719-4.747-2.103-1.228-.384-1.751-.708-1.163-.721.589-.013 2.45.544 4.138 1.238 1.687.694 2.946 1.065 2.797.824-.375-.606-5.941-2.645-7.222-2.645-1.302 0-1.308-.271-.049-2.057 1.825-2.587 3.662-6.708 5.096-11.431.778-2.566 1.904-5.805 2.502-7.199 2.179-5.084.484-6.286-5.176-3.671-2.192 1.012-3.823 1.553-3.624 1.201.994-1.763 2.665-3.047 3.966-3.047 3.96 0 7.195-6.018 5.264-9.794-.801-1.566-2.652-3.013-3.872-3.028-.742-.009-.891-.249-.588-.948.222-.514 1.294-3.977 2.382-7.694 1.087-3.718 2.375-7.753 2.861-8.968.984-2.46 1.183-4.013.349-2.723-.441.683-.52.66-.527-.15-.019-2.234-5.538.239-13.377 5.995l-1.871 1.375 1.568-2.139c3.195-4.357 3.588-4.752 5.656-5.677 4.924-2.205 5.525-11.168.749-11.168-1.09 0-.936-.803.632-3.287 3.295-5.22 5.013-12.618 5.05-21.752.012-3.011.287-5.11.783-5.977 1.238-2.166 1.017-3.209-.68-3.209-1.169 0-1.707.424-2.541 2.005-1.556 2.951-4.672 6.169-10.683 11.032-10.857 8.785-14.699 13.601-15.715 19.704-.355 2.133-.485.201-.532-7.92l-.063-10.741-52.54-.355c-28.897-.196-64.392-.356-78.877-.356h-26.337l-.02 25c-.018 21.882-.145 30.596-.503 34.626-.052.588-.647-.495-1.321-2.407-1.028-2.914-1.112-3.608-.517-4.293 1.478-1.705.554-3.495-7.127-13.803-9.981-13.395-9.717-14.391.656-2.478 1.287 1.478 2.862 4.082 3.5 5.786.847 2.266 1.372 3.016 1.952 2.793.437-.167.861-.304.943-.304.246 0-.117-3.593-.478-4.73-.184-.581.174-4.026.796-7.656 2.974-17.351 1.109-21.457-16.453-36.216-4.899-4.117-6.912-6.19-8.022-8.26-1.684-3.144-5.54-4.683-4.669-1.866m-49.14 11.963c-3.956 6.633-3.983 6.703-2.838 7.433 5.994 3.827 16.561 9.881 16.891 9.677.557-.344 8.21-13.163 7.977-13.361-.35-.296-2.521-1.369-2.771-1.369-.138 0-1.355 1.865-2.704 4.144-1.35 2.28-2.673 4.482-2.941 4.894-.514.791-5.676-1.695-5.227-2.518.112-.204 1.338-2.259 2.724-4.567 1.387-2.308 2.445-4.261 2.351-4.339-.379-.317-2.527-1.358-2.803-1.358-.162 0-1.414 1.926-2.781 4.279-2.829 4.868-2.457 4.624-4.815 3.167-1.405-.869-1.692-1.307-1.314-2.006.265-.492 1.467-2.575 2.67-4.629 2.576-4.399 2.543-4.198.881-5.287l-1.307-.856-3.993 6.696m55.571-3.102c1.098 1.986 4.519 7.8 7.6 12.922 7.857 13.058 10.629 19.496 12.11 28.121l.368 2.139-1.039-1.89c-.571-1.04-1.893-4.448-2.939-7.573-2.313-6.911-4.544-11.415-9.851-19.89-6.403-10.225-9.906-17.438-8.468-17.438.122 0 1.12 1.624 2.219 3.609m-3.002-.501c.302 1.121.79 4.371 1.086 7.222.614 5.925 1.866 9.896 4.524 14.359 1.022 1.715 1.767 3.118 1.657 3.118-3.422 0-7.692-10.7-8.164-20.454-.314-6.503-.049-7.757.897-4.245m7.513 1.505l1.872 2.026-2.406-2.058c-3.293-2.815-3.657-3.202-2.407-2.551.588.306 1.912 1.468 2.941 2.583m204.72-.823c-.911 2.627-3.176 6.681-8.489 15.194-5.823 9.33-7.934 13.503-10.329 20.423-1.717 4.961-4.482 11.02-3.857 8.454.143-.588.534-2.273.869-3.744 1.618-7.109 3.889-12.644 7.924-19.317 2.29-3.787 6.043-10.014 8.339-13.838 5.715-9.515 5.693-9.48 5.949-9.224.125.125-.058 1.049-.406 2.052m-3.664.237c-.374.45-1.907 1.803-3.408 3.006-2.533 2.032-2.499 1.975.481-.797 3.225-3.001 4.188-3.728 2.927-2.209m4.812 11.028c-.879 5.216-5.46 14.357-7.195 14.357-.557 0-.249-.877 1.081-3.075 2.712-4.482 3.91-8.08 4.538-13.624.565-4.99.875-6.781 1.507-8.702.628-1.912.686 7.383.069 11.044m-191.635 4.152c3.947 5.029 4.81 10.209 3.325 19.964-.813 5.343-.964 5.255-2.745-1.604-1.85-7.129-4.677-13.134-10.89-23.138-2.652-4.27-5.125-8.33-5.495-9.022-1.051-1.964 13.194 10.474 15.805 13.8m-12.812-.758c5.1 8.112 11.12 21.06 10.213 21.967-.401.401-7.839-8.625-10.938-13.272-4.038-6.057-5.799-10.737-6.287-16.716l-.349-4.278 2.336 4.01a345.805 345.805 0 005.025 8.289m198.238-11.364c-.222.368-2.619 4.176-5.325 8.463-7.456 11.809-9.356 15.832-11.947 25.294l-1.446 5.281-.737-4.746c-2.25-14.482-.541-18.408 12.822-29.453 6.781-5.606 7.347-6.018 6.633-4.839m3.864 5.531c-.694 7.659-5.329 16.354-13.455 25.242-4.288 4.689-4.444 4.641-2.468-.757 2.138-5.841 14.827-28.338 16.084-28.516.114-.016.042 1.798-.161 4.031m-8.87-3.323c0 .111-1.384 1.336-3.075 2.721l-3.075 2.519 2.941-2.715c2.907-2.683 3.209-2.921 3.209-2.525m51.384.931c-10.655 1.144-10.022.918-8.864 3.159.844 1.631 1.015 1.705 3.403 1.476l2.514-.242 1.979 3.692 1.979 3.692-1.641 2.043-1.642 2.042 1.002 1.954 1.002 1.953 6.394-7.357c9.237-10.629 8.447-9.383 7.373-11.636-1.072-2.249-.235-2.2-13.499-.776m-105.511 1.34l34.911.33-.152 36.272c-.097 23.263-.343 36.465-.686 36.808-.356.356-.485-11.289-.386-34.936l.148-35.47-45.603-.353c-25.081-.195-58.865-.404-75.075-.466l-29.473-.113-.34 5.565c-.187 3.06-.344 25.079-.348 48.93-.006 28.514-.188 43.091-.533 42.564-.484-.742-.561-57.383-.12-88.265l.165-11.528 41.291.166c22.71.092 57 .315 76.201.496m-129.028 2.874c1.448 1.471 2.513 2.674 2.366 2.674-.147 0-1.453-1.203-2.901-2.674-1.449-1.47-2.513-2.673-2.366-2.673.147 0 1.452 1.203 2.901 2.673m240.904 1.877l-2.91 2.946-1.192-2.278c-.656-1.252-1.203-2.443-1.217-2.646-.024-.378 2.346-.719 6.108-.878l2.12-.09-2.909 2.946m-64.166-1.714c0 .089-.903.992-2.006 2.005l-2.005 1.843 1.843-2.005c1.715-1.867 2.168-2.252 2.168-1.843m-24.733 2.312l8.155.312v5.545l-3.893 1.674c-6.725 2.892-16.275 5.976-25.471 8.226-12.596 3.081-18.186 5.503-26.943 11.671-1.704 1.201-3.172 2.183-3.262 2.183-.09 0-.206-1.504-.258-3.342-.051-1.839-.207-3.711-.346-4.162-.178-.577.415-1.05 2.014-1.604 1.514-.525 2.502-1.279 2.978-2.275.392-.82 1.177-1.78 1.744-2.134 1.543-.964 1.243-1.588-.574-1.189-1.86.409-2.018-.022-.574-1.57 1.939-2.079 2.087-4.287.251-3.733-2.864.862-6.229.492-9.035-.996-7.646-4.054-8.584-4.243-13.626-2.745-1.829.543-3.259.684-3.974.393-3.239-1.318-6.224.938-7.019 5.304-.347 1.906 1.722 4.101 2.337 2.48.281-.74 2.454-.549 3.597.315.958.725.831.787-1.639.802-1.473.01-3.478.247-4.457.528-5.274 1.512-10.098-1.84-9.469-6.581l.36-2.712-1.103.998c-.92.833-1.103 1.638-1.103 4.854 0 7.631 5.218 10.318 13.636 7.023 5.429-2.125 9.141-.185 5.607 2.93-2.111 1.861-2.021 2.261.677 3.022 3.979 1.123 4.627 1.959 2.908 3.754-.791.825-1.438 1.868-1.438 2.318 0 1.634-.7 1.375-5.34-1.969-10.786-7.774-16.508-10.372-30.588-13.886-10.812-2.699-21.622-6.16-27.575-8.827l-3.877-1.738v-5.621l64.573.22c35.514.121 68.242.36 72.727.532m-229.601 5.776c-2.343 1.02-7.164 9.474-7.164 12.564 0 .372 5.917 2.893 18.515 7.886.938.372 4.48-9.028 4.48-11.891 0-5.831-9.856-11.16-15.831-8.559m155.921 1.901c.54.289 1.524 1.673 2.186 3.075 1.524 3.226 2.549 4.42 3.796 4.42.543 0 .987.232.987.515 0 1.357 4.359 1.734 5.682.492.99-.931 1.429-1.061 1.918-.572.837.837 3.25.833 2.971-.004-.117-.352-.799-.798-1.515-.992-.716-.193-2.297-1.35-3.512-2.569-2.39-2.398-3.985-2.768-5.961-1.384-.654.458-1.43.685-1.723.503-1.051-.65-.503-1.764 1.285-2.612 3.053-1.449 5.424-1.125 11.283 1.542 1.395.635 3.497.99 6.044 1.022l3.906.049-1.395 1.203c-.768.662-1.816 1.203-2.329 1.203-.513 0-1.202.27-1.532.6-1.032 1.032-.138 2.074 1.78 2.074.998 0 1.814.211 1.814.47 0 .705-3.069 1.837-4.006 1.477-1.104-.423-1.636-.335-1.475.245.074.265-.348.482-.936.482-1.327 0-1.327.007.112 2.767 2.031 3.897.057 11.136-3.036 11.136-.334 0-1.639 1.083-2.9 2.407-2.717 2.85-2.862 2.873-5.22.802-1.005-.882-2.06-1.604-2.343-1.604-1.057 0-.454-1.543 1.618-4.146 3.595-4.515 6.299-10.293 4.817-10.293-1.456 0-1.344-.146-1.542 2.006a.755.755 0 01-.73.671c-.368.002-1.27.312-2.006.689-1.617.828-5.309 1.187-4.536.44.289-.279 1.696-1.125 3.127-1.88l2.601-1.371-1.531-.582c-1.878-.714-3.404-2.044-3.404-2.967 0-1.47-4.997-5.537-6.818-5.55-1.424-.01-1.738-.222-1.738-1.173 0-2.362 2.195-3.697 4.261-2.591m-56.481 2.926c6.499 2.598 15.699 5.373 25.791 7.781 16.307 3.891 34.706 15.319 38.656 24.01.864 1.899 1.725 88.821.881 88.821-.161 0-2.995-1.356-6.299-3.014-21.17-10.624-39.207-14.193-59.463-11.769-3.813.457-6.968.781-7.011.721-.044-.06.04-21.947.187-48.638l.266-48.53 1.397-.08 1.398-.08-1.471-.223c-1.684-.255-2.153-2.279-.535-2.307.892-.015.892-.042 0-.561-1.103-.643-1.424-8.513-.347-8.513.323 0 3.271 1.072 6.55 2.382m222.541 1.237c-5 1.939-9.181 3.59-9.29 3.671-.72.534 3.945 10.483 5.595 11.932 3.624 3.182 11.578 1.731 15.597-2.846 2.482-2.827 2.483-4.879.004-11.697-.936-2.574-1.952-4.658-2.258-4.632-.307.027-4.648 1.634-9.648 3.572m-84.647 51.327c-.132 29.927-.319 54.499-.414 54.605-.096.106-2.293-.13-4.883-.526-18.67-2.849-35.957.163-55.645 9.695l-8.689 4.208-.003-8.924c-.007-27.725 1.21-81.133 1.87-82.076.996-1.421 9.951-8.515 14.977-11.864 7.82-5.21 12.011-6.958 23.828-9.938 10.74-2.708 20.335-5.783 25.8-8.267 1.528-.695 2.918-1.277 3.089-1.294.171-.017.202 24.455.07 54.381M44.084 132.604c3.666 1.775 4.347 3.446 2.938 7.212-1.329 3.551-.686 3.501-7.705.6-6.939-2.867-6.513-2.443-5.392-5.378 1.646-4.312 4.746-5.054 10.159-2.434m57.737 4.296c2.304 3.205 2.498 4.198.324 1.656-2.157-2.523-4.562-1.324-3.965 1.977l.358 1.98-1.38-1.27c-2.858-2.63-2.107-7.018 1.2-7.018 1.237 0 1.921.527 3.463 2.675m98.899-1.358c.544.411 1.301.628 1.684.481.383-.147.851-.017 1.04.289.651 1.054-2.345 1.313-3.466.3-1.798-1.628-1.176-2.524.742-1.07m166.04 1.82c1.481 4.94.105 7.189-5.474 8.947-4.111 1.296-5.448.8-7.036-2.611-1.789-3.843-1.964-3.603 4.441-6.092 7.202-2.8 7.303-2.803 8.069-.244m-186.335 1.124c1.86.384 3.326.391 4.598.022 1.028-.297 2.953-.516 4.278-.485l2.41.054-1.871.545c-1.03.3-3.075.968-4.546 1.484-3.906 1.37-9.893-.802-9.893-3.589 0-.511.344-.41 1.147.339.631.587 2.375 1.321 3.877 1.63m123.945-1.772c1.451 1.313 1.296 4.512-.291 6.003-1.061.996-1.32 1.058-1.581.377-.172-.447-.082-.956.199-1.13.878-.543.532-1.55-.887-2.585l-1.366-.995-1.537 1.797c-2.176 2.545-1.95 1.374.336-1.74 2.058-2.803 3.428-3.264 5.127-1.727m-202.973 2.19c.533.854-.742 1.162-2.933.709-.11-.022.1-.402.466-.843.881-1.061 1.75-1.014 2.467.134m13.042 9.738c0 .258.166.903.37 1.434.204.531-1.713-1.315-4.259-4.101-2.936-3.213-4.636-5.514-4.649-6.292-.015-.965.891-.192 4.259 3.633 2.353 2.672 4.279 5.069 4.279 5.326m154.645-9.239c-1.268.448-2.208.913-2.089 1.033.12.119 1.248-.146 2.508-.591 2.864-1.01 2.69-1.039 2.69.447 0 1.174-.346 1.313-5.324 2.139-6.718 1.116-7.959 1.066-4.57-.185 4.043-1.492 2.19-1.26-2.672.334-4.224 1.385-6.714 2.707-4.012 2.13.735-.157 4.886-.819 9.225-1.471l7.887-1.186v-1.775c0-2-.276-2.066-3.643-.875m-139.137-.189c0 .161 2.038.956 4.529 1.767 5.33 1.736 5.496 2.087.584 1.232-1.962-.342-3.679-.51-3.815-.374-.136.136 2.344.66 5.51 1.165 3.167.505 6.24 1.049 6.828 1.209.707.193.888.113.535-.236-.294-.291-3.302-1.436-6.685-2.545-3.382-1.109-6.45-2.128-6.818-2.263-.368-.135-.668-.115-.668.045m151.477 13.46c.025 1.765-.033 3.997-.129 4.961-.122 1.222.119 1.968.795 2.463.925.676.907.795-.372 2.525-1.401 1.893-1.66 4.061-.639 5.343.451.567.297 1.6-.63 4.227l-1.227 3.475.171-6.149c.094-3.383.222-11.685.284-18.449l.112-12.3.795 5.348c.437 2.941.815 6.791.84 8.556m20.073-12.46c.99.99.761 1.607-.453 1.222-.619-.197-1.48-.038-1.981.365-.656.528-.615.337.16-.741 1.191-1.659 1.388-1.732 2.274-.846m-199.867 1.01c.512.957.458 1.091-.376.93-.536-.103-1.055-.606-1.153-1.117-.25-1.295.805-1.165 1.529.187m189.184 5.79c-4.226 4.511-6.254 5.631-3.619 1.998 2.855-3.937 7.722-8.688 7.897-7.709.109.609-1.457 2.699-4.278 5.711m9.69-3.641c-.41.766-.778.952-1.149.581-.677-.677-.097-1.708.963-1.708.637 0 .673.217.186 1.127m-10.716 8.739c-3.303 4.282-6.102 7.688-6.22 7.57-.87-.87 2.774-6.734 7.049-11.346 6.679-7.205 6.297-5.464-.829 3.776m-184.717-6.355c.8 1.049 1.584 1.777 1.744 1.617.159-.159-.015-.656-.387-1.104-.372-.449-.555-.815-.407-.815.148 0 .944.902 1.768 2.005 1.136 1.519 1.216 1.758.331.987-2.245-1.958-1.126-.147 4.427 7.167 5.844 7.696 6.168 8.196 5.481 8.439-.231.081-1.208-.881-2.171-2.14-2.839-3.711-12.77-16.668-13.332-17.394-.362-.468-.276-.669.287-.669.443 0 1.459.858 2.259 1.907m-10.067.938a.847.847 0 01.968.336c.191.309.588.563.883.563.294 0 .363-.278.153-.618-.239-.385-.147-.472.244-.23.345.213.506.581.359.819-.147.238.686 1.064 1.852 1.835 2.307 1.527 2.948 1.74 2.358.785-.239-.386-.147-.472.244-.231.344.213.509.577.366.808-.258.418 3.572 3.783 4.305 3.783.21 0-.077-.541-.637-1.203l-1.019-1.203 1.191 1.007c.655.554 1.085 1.178.956 1.386-.128.208.621 1.199 1.666 2.201 5.451 5.23 8.753 10.965 10.677 18.545 1.109 4.369 2.152 11.395 1.594 10.743-.794-.93-1.405-2.678-.806-2.308 1.123.694.289-.922-5.221-10.12-5.317-8.876-9.669-15.068-10.21-14.527-.169.169-.986-.343-1.815-1.137-.829-.795-1.508-1.262-1.508-1.039 0 .72 4.41 5.658 4.825 5.402.221-.136.73.17 1.131.682.659.841.64.86-.207.196-.515-.404-.936-.493-.936-.199 0 .663 1.675 2.101 2.022 1.735.14-.147.614.334 1.053 1.069l.8 1.337-1.124-1.337c-2.01-2.392-1.221-.716 2.944 6.255 4.047 6.775 5.49 8.861 4.828 6.981-.456-1.298.008-1.174.742.198.426.797.432 1.026.018.77-.884-.546-.708.288.501 2.374l1.084 1.872-1.415-1.605c-.853-.967-1.286-1.222-1.092-.64.217.648.119.838-.297.58-.41-.253-.508-.091-.289.48.248.646.103.777-.578.522-.815-.305-.828-.234-.132.696.679.906.679.949 0 .341-.427-.382-.776-.97-.776-1.307 0-.336-1.771-1.865-3.936-3.398-6.155-4.358-7.837-6.236-8.587-9.587-.604-2.696-2.846-5.601-4.325-5.601-.567 0-2.33-4.655-3.47-9.163a331.944 331.944 0 00-1.157-4.473c-.162-.589.844.443 2.235 2.293 1.392 1.85 2.661 3.233 2.821 3.074.159-.159.73.109 1.269.597 1.697 1.536 1.069.223-1.529-3.198-1.38-1.816-1.981-2.843-1.337-2.283.644.561 1.171.814 1.171.564s.842.361 1.872 1.359c1.029.998 1.871 1.575 1.871 1.283 0-.714-4.248-4.83-4.635-4.492-.169.147-1.415-1.056-2.769-2.673-1.355-1.618-1.867-2.431-1.139-1.806.728.624 1.603 1.032 1.943.907m203.392-.927c0 .274-6.012 8.171-12.952 17.012-1.259 1.604-2.619 2.934-3.023 2.956-.513.028-.575-.161-.206-.629.29-.368 3.004-3.917 6.03-7.888 8.787-11.527 10.151-13.066 10.151-11.451m-203.744 1.639c0 .294.602 1.1 1.337 1.791.736.691 1.337 1.015 1.337.721 0-.294-.601-1.1-1.337-1.791-.735-.69-1.337-1.015-1.337-.721m212.85.972c-.682.726-1.416 1.212-1.631 1.079-.394-.243-8.791 8.957-12.697 13.911-2.023 2.567-5.42 7.846-11.08 17.219-3.281 5.436-3.353 5.357-1.63-1.794 2.23-9.253 6.38-16.414 12.343-21.3 1.316-1.078 2.272-2.156 2.125-2.394-.147-.238.151-.761.662-1.162.842-.66.86-.64.196.206-1.165 1.486-.485 1.144 4.539-2.284 2.596-1.772 5.005-3.111 5.354-2.978.348.134 1.054-.221 1.569-.79.514-.568 1.06-1.033 1.213-1.033.153 0-.281.594-.963 1.32m-201.073 2.439c1.614 2.267.94 1.969-.848-.375-.823-1.08-1.224-1.794-.89-1.588.334.206 1.116 1.09 1.738 1.963m199.453-.388c0 .089-.902.992-2.005 2.005l-2.005 1.843 1.843-2.005c1.715-1.867 2.167-2.251 2.167-1.843m63.981 4.99c-3.781 3.989-5.184 5.114-6.952 5.573l-4.281 1.112c-1.952.506-2.046.626-1.732 2.197.463 2.314.376 2.293 5.061 1.223l4.208-.961 6.585 2.203c7.564 2.53 7.035 2.553 6.315-.28-.557-2.194-.559-2.196-4.919-3.414-2.399-.67-4.469-1.305-4.599-1.411-.131-.107 1.27-1.716 3.114-3.575 3.194-3.223 3.334-3.474 2.984-5.339-.531-2.833-.596-2.803-5.784 2.672m-335.906-3.083l-9.625 1.406-.5 2.022c-.614 2.486-1.186 1.915 9.404 9.372l8.369 5.893.537-2.118c.53-2.086.506-2.139-1.551-3.501-1.148-.76-2.083-1.531-2.076-1.712.007-.182.443-2.015.969-4.073l.957-3.744 2.622-.559c2.588-.552 3.2-1.244 3.408-3.852.07-.886-1.066-.807-12.514.866m63.904.394c0 .294.842 1.351 1.872 2.349 1.029.998 1.871 1.602 1.871 1.342s.722.219 1.605 1.065c.882.845 1.604 1.296 1.604 1.002 0-.294-.722-1.227-1.604-2.072-.883-.845-1.605-1.324-1.605-1.065 0 .26-.842-.344-1.871-1.341-1.03-.998-1.872-1.574-1.872-1.28m208.292 5.112c-1.988 6.911-2.606 8.207-4.423 9.28-1.909 1.128-3.132 3.077-3.517 5.604-.211 1.387-1.033 2.564-3.176 4.546-3.132 2.898-11.459 8.825-10.727 7.636 2.335-3.79 10.721-16.136 13.633-20.071 3.694-4.991 4.479-6.386 2.682-4.759-.539.487-1.116.749-1.283.582-.321-.321-3.085 3.048-3.085 3.76 0 .229.421.086.936-.318.846-.664.866-.646.206.196-.401.511-.924.809-1.162.662-.443-.273-2.656 2.484-2.651 3.303.001.249.622-.269 1.381-1.152l1.378-1.604-1.155 1.744c-.635.96-1.374 1.608-1.644 1.442-.424-.262-8.519 11.513-8.519 12.393 0 .18.421-.003.936-.407.846-.664.866-.645.206.196-.401.512-.933.804-1.183.65-.249-.154-1.096.69-1.882 1.877-1.487 2.248-2.264 2.917-1.305 1.124.715-1.335.703-1.794-.034-1.339-.414.256-.408.027.019-.771.735-1.373 1.181-1.487.776-.198-.251.799-.171.784.551-.102.973-1.194 1.125-2.138.258-1.603-.413.256-.408.027.019-.77.696-1.3 1.222-1.529.763-.332-.787 2.049.519.339 3.572-4.679 1.835-3.015 4.264-6.735 5.4-8.266 2.321-3.131 2.635-4.024.884-2.512-.739.638-.542.194.527-1.188 2.857-3.692 6.655-7.746 6.965-7.435.161.161.895-.251 1.631-.915.736-.665.213.277-1.163 2.093-2.642 3.487-3.212 4.726-1.432 3.116.588-.533 1.069-.781 1.069-.552 0 .228.361.116.802-.25 1.132-.94 1.005-1.894-.133-1.002-.847.664-.867.646-.207-.196.401-.511.93-.806 1.175-.654.246.152 1.241-.787 2.212-2.086 2.332-3.119 2.384-2.897.7 2.957m-8.056 1.261c-1.684 1.918-2.955 3.596-2.824 3.727.229.229 5.162-5.16 5.994-6.548.92-1.535-.296-.452-3.17 2.821m-261.932-.28c-.656 3.204-.388 3.169-4.318.556-3.36-2.234-3.312-2.504.506-2.854 4.836-.444 4.425-.692 3.812 2.298m62.245-2.001c-.008.224 1.311 2.199 2.932 4.39 1.62 2.191 5.497 7.886 8.615 12.657 4.475 6.845 5.772 8.49 6.156 7.804.68-1.215-14.563-24.578-15.454-23.688-.152.152-.062.593.201.979.262.386-.178-.029-.979-.923-.801-.894-1.463-1.442-1.471-1.219m133.024 4.353c-12.34 5.075-17.234 13.04-15.907 25.888.834 8.073 4.792 14.229 11.252 17.502 2.395 1.214 2.633 1.503 2.633 3.197v1.863h-11.23v6.031l2.807-.337c1.544-.186 5.154-.34 8.022-.342l5.214-.005v-6.379c0-6.522-.456-8.059-2.386-8.059-2.181 0-7.207-4.828-9.08-8.722-4.736-9.846-.952-19.361 10.106-25.411 6.768-3.703 19.003 1.336 23.369 9.624 4.407 8.364-1.311 22.304-10.114 24.658l-2.414.646.281 6.511c.359 8.308-.348 7.667 8.451 7.667h7.455v-2.611c0-3.128-.262-3.253-6.818-3.264l-4.412-.007v-2.334c0-2.259.074-2.362 2.314-3.217 14.521-5.546 15.75-29.673 2.02-39.658-5.901-4.292-15.5-5.734-21.563-3.241m-134.635 6.219c.32.596.793.953 1.052.793.259-.16.645-.009.858.335.241.391.155.483-.231.245-.887-.549-.76.301.276 1.835l.893 1.322-1.329-1.203c-2.201-1.994-5.069-.082-3.704 2.469 1.307 2.442.215 2.97-1.858.897-1.881-1.881-1.834-5.151.097-6.67 1.784-1.403 3.204-1.411 3.946-.023m68.47.218c-.371.447-5.598 10.619-11.617 22.604-12.53 24.954-11.361 23.046-14.255 23.257-1.847.134-2.261.37-2.402 1.366l-.171 1.203h17.796l-.171-1.203c-.127-.891-.588-1.251-1.775-1.385-3.571-.403-3.557-.506 1.356-10.356l2.856-5.725 8.776-.157c10.485-.189 8.803-1.171 13.388 7.814 3.829 7.503 4.054 8.338 2.246 8.338-1.718 0-2.686.612-2.686 1.697 0 1.017 13.25 1.467 16.693.567 1.923-.503.934-1.657-1.98-2.309-4.3-.962-3.473.348-17.699-28.03-9.713-19.377-9.396-18.836-10.355-17.681m136.226 1.237a14.225 14.225 0 00-1.404 2.006c-.326.588-.601.801-.609.473-.018-.655 2.012-3.415 2.511-3.415.172 0-.053.422-.498.936m6.764.636c1.619 1.789 1.234 4.813-.85 6.675-1.967 1.758-3.075.711-1.31-1.238.778-.861.719-1.054-.752-2.464l-1.596-1.529-1.285 1.206c-.843.792-1.408 1.005-1.647.618-.201-.325-.061-.522.313-.441.372.081 1.172-.755 1.778-1.857 1.285-2.339 3.712-2.779 5.349-.97m-287.626 2.213l-.357 2.695 3.766 4.722c2.071 2.597 3.765 4.834 3.765 4.971 0 .136-1.953-.09-4.34-.502-2.388-.412-4.402-.678-4.475-.59-.073.088-.288 1.014-.476 2.058l-.342 1.897 10.298 1.664c5.664.915 10.326 1.625 10.361 1.578.034-.047.224-.978.421-2.069l.359-1.985-2.828-.368c-2.266-.296-3.173-.733-4.566-2.198-2.325-2.448-2.453-2.283 3.551-4.569l5.287-2.014.367-2.447c.477-3.176.963-3.184-6.397.111-7.88 3.527-6.92 3.636-10.428-1.186-3.677-5.054-3.538-4.992-3.966-1.768m77.803.344c.713.8.879 1.134.368.742-.549-.42-1.48-.574-2.273-.375-1.442.362-1.741-.141-.702-1.18.903-.903 1.145-.828 2.607.813m207.134 2.361c-.158.256-.774.205-1.369-.114-.852-.456-1.327-.373-2.24.392-.637.533-.454.193.408-.756 1.495-1.647 4.259-1.234 3.201.478m-207.214-.387c.995 1.198-.239 1.484-1.309.302-.805-.89-.827-1.057-.137-1.057.451 0 1.102.34 1.446.755m278.119.448c.002.662.253 2.737.557 4.612.732 4.511 1.06 4.53-7.156-.413-11.084-6.67-11.59-6.447-9.996 4.404.596 4.051 1.083 7.592 1.083 7.87 0 .278.721.506 1.604.506 1.889 0 1.979-.646 1.001-7.219-.784-5.272-1.22-5.27 7.52-.04 8.357 5.001 11.133 5.663 10.505 2.508-.153-.77-.533-3.444-.844-5.944-.928-7.45-.942-7.487-2.717-7.487-1.264 0-1.561.229-1.557 1.203m-72.197.871c0 .789-1.521 1.784-2.142 1.4-.417-.258-.405-.576.043-1.115.691-.833 2.099-1.024 2.099-.285m-194.59 8.755c4.525 4.779 7.804 8.359 7.288 7.954-1.268-.995-16.097-16.644-15.772-16.644.142 0 3.96 3.91 8.484 8.69m188.708-8.523c0 .092-.782.875-1.738 1.738l-1.738 1.571 1.57-1.738c1.464-1.62 1.906-1.984 1.906-1.571m-190.878 7.965c6.327 6.715 6.482 6.932 3.157 4.412-3.25-2.465-11.21-10.371-11.21-11.135 0-1.31 2.275.589 8.053 6.723m191.947-6.381c0 .08-1.985 2.065-4.412 4.411l-4.411 4.266 4.265-4.412c3.962-4.097 4.558-4.655 4.558-4.265m-198.128 3.062c1.448 1.47 2.513 2.674 2.366 2.674-.147 0-1.452-1.204-2.901-2.674-1.448-1.471-2.513-2.674-2.366-2.674.147 0 1.452 1.203 2.901 2.674m9.523 1.602c.238.001.26-.299.048-.666-.223-.389-.18-.482.103-.223.267.245.486.658.486.917s2.166 2.233 4.813 4.386l4.813 3.915.123 6.131c.116 5.805.081 6.035-.666 4.337-.434-.986-.633-2.045-.443-2.352 1.016-1.645.587-4.069-.985-5.56-5.783-5.487-14.418-15.191-11.665-13.111 1.617 1.223 3.135 2.225 3.373 2.226m189.892-3.288c.301.488-8.656 9.315-12.551 12.369-1.306 1.024.734-1.44 4.538-5.481 6.806-7.229 7.456-7.788 8.013-6.888m81.368.027c-.961 1.553.383 3.85 2.043 3.495 2.105-.451 2-.301 1.603-2.285-.338-1.692-2.837-2.521-3.646-1.21M300 181.551c-1.299 1.323-2.482 2.406-2.629 2.406-.147 0 .795-1.083 2.094-2.406 1.299-1.324 2.482-2.407 2.629-2.407.147 0-.795 1.083-2.094 2.407m-12.386 6.205l-7.667 8.077v3.108c0 1.709-.181 3.288-.402 3.509-.22.221-.401-2.031-.401-5.004v-5.406l2.817-2.432c2.444-2.11 12.634-9.779 13.14-9.889.1-.022-3.269 3.595-7.487 8.037m-118.363-1.66l2.95 5.883h-6.154c-3.385 0-6.154-.132-6.154-.293 0-.926 5.37-11.472 5.841-11.472.312 0 1.895 2.647 3.517 5.882m-68.85-2.551c10.145 5.535 19.371 17.383 20.772 26.676.438 2.903.345 2.81-4.598-4.606-5.885-8.828-8.028-11.452-14.852-18.181-3.43-3.383-6.063-6.151-5.851-6.151.211 0 2.249 1.018 4.529 2.262m197.413 6.446c-3.945 3.906-8.517 9.02-10.16 11.363a5994.472 5994.472 0 01-5.811 8.272l-2.824 4.01.31-2.467c.862-6.864 2.13-9.056 9.652-16.682 6.274-6.361 13.202-11.447 15.785-11.587.121-.007-3.007 3.184-6.952 7.091m-198.517 1.185c4.484 5.163 10.863 13.205 10.863 13.694 0 .194-1.017.002-2.26-.426-1.243-.429-2.8-.676-3.46-.55-.659.126-1.072.024-.916-.228.155-.252-.153-.458-.685-.458-1.797-.002-5.153-5.834-7.324-12.728-1.978-6.284-2.336-6.35 3.782.696m190.543-3.865c0 .08-2.106 2.186-4.68 4.679l-4.679 4.534 4.534-4.679c4.211-4.346 4.825-4.923 4.825-4.534m14.805 5.591c-2.914 8.788-5.428 11.999-9.915 12.665-1.281.19-3.047.717-3.924 1.171-1.485.768-1.405.575 1.166-2.822 3.294-4.352 14.034-16.805 14.281-16.558.095.095-.629 2.59-1.608 5.544m-190.85 12.083c6.486 9.542 5.938 9.289-1.396-.643-3.232-4.377-7.606-9.972-9.722-12.433l-3.846-4.476 4.996 5.119c3.065 3.14 6.919 7.947 9.968 12.433m183.546-10.819c-2.36 2.674-6.732 8.089-9.716 12.032-2.985 3.944-5.53 7.171-5.656 7.171-.203 0 4.172-6.439 8.539-12.567 1.374-1.928 10.474-11.497 10.934-11.497.104 0-1.741 2.188-4.101 4.861m-20.714 8.676c-.375 16.32-1.12 17.153-1.178 1.319-.04-11.08.072-13.172.695-12.933.614.235.698 2.259.483 11.614m11.074-8.457c-1.299 1.324-2.483 2.406-2.63 2.406-.147 0 .796-1.082 2.095-2.406 1.299-1.324 2.482-2.406 2.629-2.406.147 0-.796 1.082-2.094 2.406m73.262-.097c0 2.199.083 2.313 2.272 3.11l2.273.827.153 4.246.154 4.245-2.292.836c-2.014.734-2.33 1.074-2.612 2.81-.461 2.839-.502 2.845 10.695-1.404l10.212-3.876v-2.216c0-1.268-.286-2.337-.668-2.497-5.102-2.139-18.071-7.528-18.984-7.889-1.134-.448-1.203-.344-1.203 1.808m-246.524.097c.997 1.029 1.693 1.872 1.546 1.872-.147 0-1.084-.843-2.081-1.872-.998-1.029-1.694-1.872-1.547-1.872.147 0 1.084.843 2.082 1.872m-86.256 2.833l-10.052 4.069.159 2.159.159 2.16 7.754 3.086c4.265 1.697 9.032 3.566 10.593 4.153l2.838 1.067-.165-2.277c-.155-2.151-.29-2.32-2.437-3.062l-2.273-.786v-8.711l2.407-.919c2.286-.873 2.406-1.024 2.406-3.014 0-2.663.575-2.768-11.389 2.075m255.396-1.763c-.821 1.029-1.721 1.871-1.999 1.871-.279 0 .31-.842 1.308-1.871 2.316-2.39 2.598-2.39.691 0m89.549 5.708c4.1 1.44 4.116 1.607.268 2.819-1.691.533-3.376 1.084-3.744 1.224-.48.184-.668-.51-.668-2.475 0-3.162-.19-3.09 4.144-1.568m-342.112 2.289v2.917l-3.61-1.358c-1.985-.747-3.679-1.427-3.764-1.512-.114-.114 6.369-2.741 7.24-2.935.074-.016.134 1.284.134 2.888m64.347 1.86c-4.99 1.796-8.791 4.962-11.887 9.9-2.125 3.389-2.158 2.637-.046-1.054 2.652-4.635 9.964-9.925 13.629-9.86.588.01-.175.467-1.696 1.014m8.298 2.229c1.369 1.206 3.572 2.804 4.895 3.551 5.719 3.23 11.752 7.45 12.272 8.586.715 1.562.744 13.302.034 13.741-.304.187-.393-.028-.21-.506.426-1.108-1.97-7.821-2.643-7.405-.299.185-.358.052-.136-.308.882-1.427-5.075-9.461-6.588-8.885-.682.259-.722.19-.196-.34.933-.94-3.36-3.917-6.859-4.757-9.639-2.312-20.482 6.735-22.37 18.666-.764 4.831-.92 4.513-.697-1.429.468-12.534 5.763-20.235 15.486-22.526 3.616-.851 4.43-.664 7.012 1.612m3.826-1.604c-.645.46-.566.521.401.309.663-.145 1.091-.081.953.143-.363.587 2.351 1.714 3.097 1.286.346-.198.49-.203.321-.01-.17.192.736 1.47 2.012 2.841 1.277 1.371 2.23 2.583 2.119 2.694-.234.234-7.696-4.114-10.061-5.863l-1.599-1.183 1.244-.35c1.913-.538 2.393-.496 1.513.133m186.854 1.492c1.274.499-.499 1.943-6.581 5.356-4.917 2.76-5.038 2.637-1.301-1.317 1.653-1.748 2.837-2.881 2.631-2.517-.252.444-.103.558.451.345.455-.174.696-.53.535-.79-.161-.26.121-.314.626-.12.563.216.786.14.578-.196-.211-.342.209-.461 1.116-.317 1.139.182 1.28.109.652-.336-.914-.648-.23-.705 1.293-.108m12.076 1.278c7.441 2.764 11.636 9.651 12.287 20.17.4 6.469.314 7.898-.268 4.466-2.035-11.98-9.077-19.898-18.436-20.727-2.464-.219-2.637-.183-1.07.22 1.628.419 1.499.453-.99.259-4.578-.357-14.826 6.931-13.737 9.768.152.397.048.581-.231.408-.623-.385-2.855 3.834-2.41 4.555.176.284.085.516-.202.516-.287 0-.884 1.023-1.327 2.273l-.804 2.273-.042-5.978c-.031-4.39.152-6.172.689-6.709.883-.884 6.182-4.298 11.3-7.282 2.059-1.2 4.706-3.031 5.883-4.069 2.438-2.152 3.891-2.174 9.358-.143m-206.095 3.114c-3.815.556-7.325 2.184-10.08 4.673-2.034 1.837-4.893 5.421-3.772 4.729.801-.496 1.407 1.276.682 1.995-.421.417-.489.329-.244-.316.247-.65.081-.856-.608-.755-.521.076-1.039.479-1.151.894-.159.591-.08.581.364-.046.64-.905.753-.53.241.803-.275.719-.439.753-.848.177-.362-.509-.431-.368-.243.491.17.774.059 1.077-.312.848-.367-.227-.448-.024-.223.562.193.505.133.782-.135.617-.268-.166-.738.965-1.045 2.512l-.558 2.813.255-2.661c.882-9.193 10.059-17.945 18.692-17.826 1.787.025 1.62.105-1.015.49m4.491.529c-.628.445-.487.518.652.336.907-.145 1.327-.025 1.116.316-.208.337.015.413.578.197.506-.194.782-.133.615.138-.167.269.16.637.726.816 1.825.58 2.414 1.756.878 1.756-.735 0-1.207-.211-1.047-.469.439-.71-1.942-1.422-4.053-1.213-1.628.161-1.697.124-.535-.283 1.071-.375.728-.479-1.727-.522-4.374-.076-12.175 3.407-11.762 5.252.086.383-.116.494-.484.267-.422-.261-.487-.158-.198.31.311.502.221.577-.318.265-.413-.24-.579-.246-.369-.013.21.233.11.934-.224 1.557-.435.813-.023.621 1.463-.683 8.434-7.402 20.383-4.781 25.182 5.524 1.675 3.598 1.611 4.897-.101 2.04-.749-1.25-1.496-2.273-1.66-2.273-.165 0 .112.628.614 1.395.753 1.149.789 1.501.205 2.005-.391.336-.542.399-.336.14.425-.537-.586-2.721-1.047-2.261-.165.166-1.115-.414-2.11-1.287-7.168-6.293-16.03-4.907-22.271 3.484-.875 1.177-1.407 1.658-1.182 1.07.226-.588.421-1.37.435-1.738.014-.368.131-.563.261-.434.129.129.995-.763 1.926-1.982 3.975-5.212 12.42-6.853 17.789-3.457 1.218.77 2.399 1.234 2.626 1.03.226-.204.255-.097.064.237-.207.362.029.579.583.535.602-.048.901.277.846.919-.064.759.062.844.535.362.976-.997-4.935-5.569-7.938-6.14-1.49-.283-1.471-.252.268.44 1.775.706 1.65.73-2.44.47-3.75-.238-4.655-.112-6.952.971-1.452.685-2.881 1.357-3.175 1.494-.294.136-.206-.213.196-.775.402-.563-.396.162-1.774 1.609-1.378 1.448-3.08 3.734-3.781 5.08-1.597 3.066-1.724 1.489-.211-2.632 1.346-3.669 1.761-6.07.964-5.577-1.255.775.595-1.785 2.596-3.592 2.924-2.642 6.51-4.221 10.691-4.708l4.153-.483c.294-.034.174.194-.267.507m202.399 3.186c4.646 2.791 8.826 8.408 9.53 12.806.118.736.111 1.033-.016.662-.126-.371-.429-.551-.674-.4-.244.151-.325-.267-.18-.929.188-.859.118-1-.243-.491-.615.866-1.336-.515-.883-1.694.157-.409-.088-.713-.575-.713s-.732.304-.574.713c.518 1.352-.203.709-1.056-.941-1.411-2.729-1.426-1.402-.019 1.706.72 1.589 1.448 3.852 1.619 5.028l.311 2.139-1.055-2.272c-.579-1.25-1.198-2.273-1.375-2.273-.176 0-.149.278.061.617.231.374.147.473-.212.251-.327-.202-.476-.676-.331-1.053.144-.376-.288-1.151-.96-1.72l-1.222-1.036 1.019 1.203c1.66 1.96.7 1.372-1.579-.967-1.388-1.426-1.747-2.035-1.044-1.776.725.268.553-.04-.535-.955-6.493-5.464-16.594-2.749-22.25 5.98-2.069 3.193-2.254 3.285-1.322.659 4.288-12.075 16.713-16.136 25.849-8.449.954.802 1.734 1.288 1.734 1.078 0-.209.361-.08.802.286.506.419.802.455.802.097 0-.563-1.006-1.41-1.693-1.426-.196-.005-.557-.227-.802-.495-.265-.289-.12-.308.356-.048.441.242.24-.178-.447-.934-4.322-4.748-13.184-6.481-18.269-3.571-1.324.757-2.35 1.651-2.28 1.986.076.362-.231.471-.756.27-.486-.187-.749-.118-.584.153.164.27-.024.79-.419 1.155-.395.365-.849.451-1.009.192-.16-.259.649-1.321 1.797-2.358 1.149-1.038 1.937-2.04 1.75-2.226-.186-.186.115-.165.669.048.696.267.889.195.624-.233-.258-.417-.083-.505.535-.267.618.237.793.15.535-.268-.258-.417-.084-.504.534-.267.564.216.787.14.579-.196-.209-.339.217-.473 1.116-.351 1.016.138 1.175.073.526-.215-.517-.23 1.17-.399 3.81-.381 4.423.029 4.94.154 7.806 1.876m9.877 1.309c0 .294-.471-.067-1.046-.802-.575-.736-1.046-1.578-1.046-1.872 0-.294.471.067 1.046.802.575.736 1.046 1.578 1.046 1.872m-211.314-1.809c-.474.296 1.17.964 3.316 1.346 2.218.395 2.737.579 3.348 1.19.364.365.693 1.133.729 1.706.126 1.954.201 2.175.647 1.9.245-.151.445.063.445.476s-.945-.223-2.1-1.413c-5.036-5.189-13.766-6.463-19.282-2.812-1.137.752-2.178 1.257-2.313 1.121-.398-.398 3.44-2.584 5.865-3.34 2.176-.679 10.397-.832 9.345-.174m200.107 1.014c3.848 2.083 7.634 6.122 7.199 7.681-.252.904-.202.972.245.333.464-.663.563-.67.57-.044.004.416.156.609.336.429 1.033-1.033-4.506-6.98-8.304-8.918-3.314-1.691-3.351-1.27-.046.519m-5.347.197c4.523.962 11.774 4.609 9.163 4.609-.299 0-.708-.266-.908-.59-2.832-4.582-14.573-3.931-20.196 1.119-1.605 1.442-2.425 1.939-2.054 1.244.341-.635 1.282-1.677 2.093-2.315.811-.638 1.479-1.439 1.486-1.78.007-.341.452-.543.989-.45.58.1.836-.061.629-.395-.202-.327-.041-.446.382-.284.403.154 1.317.026 2.034-.286 1.228-.534 1.21-.549-.303-.27-1.157.213-1.384.15-.814-.228.435-.289 1.879-.424 3.209-.302 2.006.184 2.145.145.814-.231-2.635-.745-.264-.636 3.476.159m-191.177.674c3.244 2.879 3.521 3.069 3.181 2.184-.195-.508-.583-.923-.863-.923s-.336-.301-.124-.669c.211-.367.194-.496-.039-.286-.233.21-.933.121-1.557-.199-.623-.32-.892-.368-.598-.107m-13.502 2.851c-1.25.567-2.273 1.17-2.273 1.339 0 .169.782-.098 1.738-.593s3.061-1.071 4.679-1.28l2.941-.381-2.406-.059c-1.355-.032-3.4.393-4.679.974m28.605 8.683c-.105 1.85-.192.475-.193-3.054-.001-3.529.085-5.043.191-3.363.106 1.68.106 4.567.002 6.417m151.963-4.226c-.101 7.15-.876 9.057-.951 2.344-.047-4.091.116-6.199.463-5.985.294.182.514 1.821.488 3.641m-167.6-2.023l1.604 1.344-2.006-1.132c-1.102-.624-2.005-1.23-2.005-1.348 0-.539.935-.098 2.407 1.136m194.507-.464c1.256.488 2.591 1.124 2.965 1.414 1.288.994.278.926-2.072-.14-2.828-1.283-7.235-1.411-9.921-.289-2.274.95-3.024 1.022-1.522.146 3.595-2.097 7.095-2.473 10.55-1.131m-9.614 2.585c-.956.415-1.738.875-1.738 1.021 0 .146.892-.107 1.983-.563 1.971-.823 7.576-.819 10.049.007.588.197.347.004-.535-.428-2.041-1-7.496-1.021-9.759-.037m-4.412 1.609c-.691.735-1.064 1.337-.83 1.337.234 0 .129.358-.235.796-.363.438-.862.672-1.108.52-.509-.315-1.684 1.601-1.249 2.036.157.156.078.412-.175.568-.253.156-.493-.165-.534-.713-.074-.979 4.035-5.881 4.93-5.881.251 0-.108.602-.799 1.337m-6.716 4.835c-.434 1.753-1.044 3.633-1.355 4.178-.31.545-.351.86-.09.699.581-.359-.132 5.728-1.148 9.807l-.733 2.941-.059-4.828c-.046-3.718.146-5.121.835-6.105.492-.702.603-1.096.246-.876-.845.522-.374-1.486 1.406-5.995 1.625-4.116 1.947-4.051.898.179m30.053.646c.021.515.208 1.417.416 2.005.209.589-.008.403-.481-.413-.473-.816-.715-1.718-.537-2.006.452-.731.56-.658.602.414m3.845 4.947c.008 1.911-.151 3.896-.355 4.41-.203.514-.367-1.604-.363-4.707.003-3.103.163-5.088.354-4.411.191.678.355 2.796.364 4.708m1.004-3.081c-.128.665-.238.246-.244-.93-.006-1.177.099-1.721.233-1.21.134.512.138 1.474.011 2.14m-233.382 2.506c.181 2.768.109 4.212-.188 3.743-.445-.704-.741-8.971-.303-8.471.108.122.328 2.25.491 4.728m42.032 26.076c7.82 37.421 41.248 62.571 79.741 59.993 38.261-2.561 69.102-34.593 69.692-72.381.066-4.248.242-5.72.587-4.91.79 1.854.515 11.97-.468 17.178-9.488 50.29-64.39 77.129-110.487 54.012-27.212-13.645-43.077-41.452-41.33-72.441l.437-7.755.345 10.428c.246 7.447.67 11.985 1.483 15.876M275.9 242.487c-.31.315-.478-.393-.444-1.872l.055-2.38.444 1.872c.26 1.095.237 2.082-.055 2.38m-157.057-1.311c0 .736.184 2.059.408 2.942.364 1.431.409 1.46.409.267 0-.735-.184-2.059-.409-2.941-.364-1.431-.408-1.46-.408-.268m41.05-.279c4.669.72 14.871 3.207 15.424 3.761.303.302-2.152 2.357-2.857 2.391-1.271.062-2.171 1.059-1.402 1.554 1.172.756.168 1.664-1.838 1.664-2.484 0-2.46 1.369.031 1.837 2.869.538 1.826 1.524-4.225 3.997-1.971.806-1.261 1.629 1.754 2.033 3.057.41 2.715 1.211-3.789 8.877l-1.447 1.706.309-1.976c.969-6.193-2.685-11.276-7.461-10.38l-1.844.345-.28-2.482c-.41-3.642-4.371-6.63-8.788-6.63-4.419 0-8.823 6.495-7.98 11.77.309 1.927.208 2.211-.975 2.75-3.827 1.744-3.843 8.562-.029 12.056 2.53 2.318 4.836 2.693 7.987 1.3 3.193-1.413 3.949-.342 1.424 2.017-1.65 1.542-2.143 2.727-1.133 2.727.628 0 2.146 3.45 2.146 4.878 0 .552.361 1.004.802 1.004.533 0 .802.533.802 1.586 0 1.814 1.203 2.692 3.689 2.692 1.134 0 1.815.362 2.265 1.204 1.6 2.99 8.919 9.492 10.685 9.492.902 0 3.147-2.152 3.147-3.016 0-.38-1.641-2.332-3.647-4.338-4.815-4.815-5.855-6.815-4.352-8.367 1.552-1.602 6.332-7.482 8.534-10.498 1.707-2.338 5.42-6.772 8.395-10.026 1.259-1.376 2.3-1.203 2.3.382 0 1.257 1.427 4.674 2.135 5.111.614.38.709.126 1.491-4.008.88-4.643 1.582-6.129 2.526-5.345.92.763 1.066.47 1.575-3.145.181-1.287.682-2.845 1.114-3.461.432-.617.785-1.91.785-2.874 0-2.073.284-2.12 3.461-.576 2.723 1.322 3.054 2.301 1.084 3.199-.735.335-1.337.819-1.337 1.076 0 .257-.842.964-1.871 1.571-2.173 1.282-2.289 1.823-.74 3.472l1.131 1.204-1.926.805c-2.833 1.183-5.251 5.188-5.042 8.347l.16 2.4-2.407.754c-8.84 2.768-10.243 3.431-12.194 5.766-5.714 6.835-3.801 15.703 4.609 21.362 1.563 1.052 3.118 2.551 3.456 3.331 1.205 2.789 3.684 4.432 4.936 3.272 1.048-.97 1.13-.97 3.315.008 3.875 1.735 9.247 1.411 9.247-.557 0-.57-.18-1.037-.401-1.037-.221 0-1.083-1.215-1.916-2.698-.833-1.484-2.429-3.659-3.546-4.833-1.989-2.091-2.027-2.205-1.781-5.457.439-5.803-2.464-9.906-3.774-5.336-.763 2.661-3.559 3.064-3.552.512.01-4.024 2.593-7.314 5.746-7.319 1.007-.002 1.203.288 1.203 1.78 0 2.605.511 2.734 2.64.667 1.048-1.018 3.53-2.577 5.515-3.465l3.609-1.613-.039 2.25c-.083 4.785-3.426 7.284-5.914 4.422-2.449-2.816-3.382-1.232-3.058 5.188.211 4.18 2.023 6.914 5.094 7.685.906.227 1.246.695 1.251 1.725.009 1.545 1.24 5.397 2.411 7.54.408.747 1.372 2.744 2.143 4.436 1.182 2.597 2.54 4.142 3.639 4.142 1.158 0 5.548-10.857 5.998-14.834.343-3.036.444-3.23 1.377-2.647 2.435 1.521 6.35-5.553 6.35-11.475 0-.587.361-1.428.802-1.869.441-.441.802-1.387.802-2.101 0-1.566-.183-1.556 2.956-.168 3.506 1.551 5.065 3.347 5.065 5.834 0 3.979-3.457 3.801-3.847-.198-.186-1.915-1.841-2.662-2.343-1.057a13.427 13.427 0 01-.8 1.903c-.273.511-.496 2.843-.496 5.182 0 4.179-.036 4.294-2.099 6.677-1.154 1.334-2.253 2.913-2.442 3.509-.189.596-.572 1.084-.851 1.084-.783 0-2.625 3.325-2.628 4.741-.001 1.11.179 1.222 1.469.913.809-.194 2.553-.583 3.877-.865 3.108-.661 5.299-1.535 6.89-2.748 1.611-1.228 2.011-1.22 2.342.043.321 1.227 2.224 2.504 4.404 2.955 2.287.473 3.505-1.388 2.024-3.091-1.867-2.145-1.495-3.533 2.028-7.563 7.468-8.545 6.43-17.731-2.447-21.651a116.101 116.101 0 01-4.546-2.129c-1.029-.522-2.533-1.105-3.342-1.295-1.404-.331-1.471-.493-1.471-3.58 0-4.677-2.654-8.511-5.891-8.511-1.446 0-1.498.093-1.414 2.54l.086 2.54-2.139-.169c-2.577-.204-2.886-.463-3.002-2.517-.194-3.437-.171-3.464 3.029-3.464 2.626 0 6.123-1.103 6.123-1.933 0-.403-4.687-5.001-6.524-6.399l-1.462-1.114 3.185-1.522c3.415-1.632 3.746-1.602 3.868.346.044.695.211 1.384.372 1.531.986.9 1.63 3.011 1.63 5.341 0 2.497.563 3.399 1.337 2.146 1.139-1.843 2.457 2.438 2.188 7.105-.216 3.745.052 3.774 2.947.316l2.294-2.739 1.098 1.316c1.612 1.933 2.978 3.75 5.377 7.156 1.176 1.67 3.635 4.988 5.462 7.374l4.412 5.76c.599.782 1.089 1.655 1.089 1.94 0 .285.337.798.75 1.141 1.662 1.38-2.647 7.347-6.456 8.939-2.122.886-2.306 2.216-.578 4.167l1.203 1.358 2.866-1.831c3.511-2.243 6.171-4.672 8.623-7.875 1.025-1.338 2.765-2.823 3.866-3.3 1.405-.609 2.106-1.307 2.352-2.344.193-.813.718-1.9 1.167-2.416.647-.745.692-1.208.216-2.252-.461-1.011-.43-1.639.135-2.728.549-1.057.595-1.811.185-2.989-.688-1.972-.43-2.234 1.481-1.507.837.318 2.434.424 3.551.235 1.116-.188 2.029-.178 2.029.024 0 .898-4.701 9.277-6.865 12.236-41.141 56.253-129.832 30.099-132.541-39.083l-.318-8.126 1.279-.303c6.062-1.432 23.818-1.754 31.493-.57m106.857.549c3.036.431 5.743.923 6.016 1.091 1.152.712.176 15.754-1.346 20.738l-.682 2.233-.607-1.497c-.361-.894-1.255-1.724-2.213-2.058-1.783-.621-1.877-.883-1.006-2.795 2.472-5.426-5.012-13.061-10.85-11.069-3.548 1.211-5.795 4.044-5.795 7.307 0 2.189-.027 2.221-2.18 2.51-8.777 1.177-7.601 15.013 1.371 16.134 3.229.404 3.86 1.205 1.344 1.709-.882.176-1.604.531-1.604.788 0 1.651-5.015-2.933-6.501-5.942-.365-.739-1.253-2.155-1.972-3.147-.719-.992-1.859-2.841-2.533-4.109l-1.226-2.306 1.515-.333c3.429-.753 3.742-2.843.556-3.716a17.438 17.438 0 01-2.536-.956l-1.199-.59 1.6-.973c1.682-1.023 2.166-2.593.799-2.593-.442 0-.803-.241-.803-.535 0-.294-.27-.535-.599-.535-1.444 0-7.908-2.924-8.313-3.76-.314-.651-.761-.806-1.515-.53-1.234.453 1.776 2.68 3.626 2.684.524.001 1.091.363 1.26.804.17.441.597.802.951.802.353 0 1.11.344 1.681.765.943.696.83.738-1.235.465-4.246-.562-2.485 1.569 5.006 6.06 1.893 1.136.218 1.445-2.991.552-4.769-1.326-4.831-1.193-1.213 2.63 1.397 1.476 4.184 5.078 6.194 8.004a755.736 755.736 0 005.748 8.262c1.987 2.791 3.037 7.487 1.674 7.487-1.025 0-11.678-14.415-15.018-20.321-1.765-3.122-4.219-5.74-4.511-4.813-2.258 7.17-3.044 7.457-3.044 1.113 0-6.298-.698-7.904-2.416-5.555-.735 1.006-1.898-2.502-2.053-6.194-.233-5.544 28.592-10.374 46.62-7.811m-84.492 5.754c2.458.955 2.798 1.259 2.486 2.221-.198.612-.547 2.628-.774 4.478-.522 4.24-.784 4.483-1.741 1.616l-.77-2.306-1.001 6.011c-1.068 6.411-1.465 6.787-2.511 2.381-.808-3.399-.684-3.441-4.802 1.601-2.904 3.555-5.551 6.723-13.318 15.942a214.608 214.608 0 00-2.114 2.54c-.848 1.058-1.563.782-1.563-.602 0-.7-.337-1.551-.749-1.893-1.294-1.075-.979-4.193.401-3.959 2.25.38 5.219-2.079 9.473-7.85 2.276-3.089 5.246-6.721 6.598-8.073 2.71-2.709 3.162-3.977 1.255-3.519-5.387 1.293-6.72.969-2.845-.692 2.36-1.011 3.698-2.574 3.402-3.972-.086-.404.747-1.588 1.85-2.631 1.103-1.044 2.005-2.18 2.005-2.525 0-.385.362-.482.936-.251.515.207 2.217.874 3.782 1.483m-35.542 2.734c2.976 1.243 3.96 6.537 1.845 9.923-.363.581-.519 1.197-.348 1.369.504.504 3.124-.904 3.124-1.679 0-.979 3.724-2.449 5.241-2.068 1.248.314 3.833 4.864 3.845 6.769.019 3.32-4.329 4.904-9.14 3.331-1.464-.479-2.753-.78-2.864-.668-.458.457 1.351 5.993 2.149 6.576.759.556.688.71-.603 1.298-1.827.832-1.986.641-3.155-3.818-1.006-3.841-1.823-4.349-2.541-1.579-1.225 4.729-9.797 5.839-10.908 1.413-1.223-4.872 1.069-8.571 4.978-8.035 2.956.405 3.413-.443 1.225-2.269-5.725-4.78.167-13.482 7.152-10.563m114.247-.212c0 .289.57.668 1.268.843 3.15.791 3.74 8.327.777 9.913-1.709.915-1.228 2.229.664 1.814 3.934-.864 6.221 2.069 5.716 7.329-.499 5.197-4.862 6.388-8.707 2.376-2.701-2.82-2.67-2.802-2.778-1.542-.044.514-.23 1.657-.414 2.54-.184.882-.445 2.145-.58 2.807-.161.792-.632 1.203-1.378 1.203-1.086 0-1.118-.167-.77-4.01.401-4.42.27-4.577-2.476-2.956-5.285 3.117-10.2-2.295-7.263-7.996 1.403-2.724 3.087-3.457 5.353-2.332 2.393 1.188 3.284.954 2.863-.754-.938-3.812-.928-4.425.101-6.051 1.803-2.848 7.624-5.278 7.624-3.184m-54.04 5.173a1097.756 1097.756 0 01-2.842 3.005c-.75.788-1.101.884-1.411.383-.226-.366-.642-.523-.924-.349-.282.174-1.211-.428-2.065-1.338-1.324-1.41-1.375-1.563-.349-1.032.661.343 1.203.866 1.203 1.163 0 .618 1.708.448 2.197-.22.317-.432 5.316-3.485 5.795-3.539.132-.015-.59.853-1.604 1.927m-12.563.806c2.17.989.518 2.588-2.674 2.588-1.561 0-1.602-.202-.376-1.888 1.086-1.494 1.234-1.528 3.05-.7m18.031.799c2.119 1.918-.214 3.602-2.717 1.962l-1.313-.861 1.226-.993c1.496-1.211 1.582-1.214 2.804-.108m-11.975 3.849c1.579 2.18 2.781 2.294 4.342.412.863-1.04 1.659-.655 1.659.802 0 3.765 3.661 7.956 6.949 7.956 1.473 0 3.212-2.082 3.212-3.844 0-1.863.502-1.881 1.824-.068 1.756 2.407 1.531 5.417-.565 7.576-.987 1.016-1.794 1.903-1.794 1.97 0 .068 1.744.538 3.877 1.046 15.794 3.761 20.672 12.732 11.772 21.652l-2.924 2.931.214 3.352c.234 3.68-.302 4.225-2.244 2.283-1.214-1.214-1.207-1.168-.578-3.88.638-2.746-.172-2.995-1.797-.551-2.177 3.275-4.898 5.093-8.688 5.805-2.792.525-4.654.273-2.909-.393.424-.162 1.692-1.851 5.036-6.708 1.249-1.814 2.39-2.544 4.792-3.065 1.959-.425 1.88-1.368-.115-1.368-2.004 0-2.693-1.223-2.693-4.778 0-3.2.456-3.397 1.854-.8 2.655 4.93 7.353 3.016 6.462-2.633-.504-3.196-2.599-5.442-7.246-7.768-2.285-1.143-4.709-2.633-5.386-3.311-1.629-1.629-1.904-.588-.525 1.986 1.029 1.919 1.586 4.416.689 3.085-.217-.321-2.091-1.695-4.165-3.054-3.552-2.328-6.121-5.595-6.121-7.786 0-.335-.249-.61-.554-.61-1.145 0 .638 10.563 2.284 13.532 1.296 2.335 4.229 3.717 5.401 2.545 2.027-2.026 2.504 3.686.566 6.765-1.659 2.636-7.163.715-7.163-2.5a.547.547 0 00-.534-.556c-.916 0-.588 2.195.62 4.15 2.111 3.415 1.725 7.605-1.155 12.543-2.974 5.1-3.737 5.054-6.025-.367-.245-.58-.636-1.182-.868-1.337-.655-.438-2.198-5.378-2.198-7.037 0-1.835.912-4.003 2.519-5.987 1.21-1.494 1.618-3.034.805-3.034-.231 0-.814.662-1.296 1.47-2.754 4.623-6.434 6.103-7.787 3.132-1.442-3.164-1.299-10.146.159-7.786 2.464 3.986 7.027.459 7.985-6.174.213-1.471 1.023-3.809 1.8-5.196 1.156-2.063 1.287-2.647.72-3.209-.565-.559-.795-.507-1.24.282-1.369 2.427-4.183 4.937-7.064 6.299-1.727.817-3.654 2.039-4.282 2.715l-1.143 1.23-.174-1.224c-.096-.673.047-1.511.318-1.863 1.863-2.415.982-3.163-1.383-1.174-.874.736-2.204 1.337-2.957 1.337-7.31 0-11.005 10.707-4.489 13.007 1.484.524 3.478-.514 4.395-2.288 1.114-2.154 1.884-2.062 1.884.225 0 2.15-2.68 5.634-4.333 5.634-2.062 0-.932.94 1.453 1.208 3.262.368 4.943 1.708 6.932 5.527l1.645 3.158-1.913.275c-2.347.338-4.091-.602-6.759-3.646-2.002-2.285-3.442-2.888-3.442-1.442 0 .441.213.802.474.802.942 0 .975 3.184.041 4.029-.83.751-.929.667-1.202-1.018-.465-2.862-2.944-6.144-5.695-7.539-3.802-1.928-4.519-3.018-4.757-7.231-.486-8.595 1.835-11.252 11.674-13.363 4.424-.949 9.098-2.616 7.486-2.67-2.693-.091-2.858-7.491-.215-9.684.992-.823.994-.82 1.877 2.976 1.49 6.402 7.066 3.838 9.286-4.27 1.508-5.508 1.296-5.352 3.372-2.485m-4.873.843c-.161.42-.455 1.627-.653 2.681-.198 1.055-.658 2.095-1.023 2.311-.364.216-.947.935-1.294 1.597-1.431 2.726-2.927.843-2.975-3.744-.025-2.463.023-2.541 1.578-2.577.883-.021 2.086-.245 2.674-.497 1.586-.682 2.02-.623 1.693.229M57.482 272.605a897.547 897.547 0 01-6.299 5.867l-3.621 3.339.832 1.608c.997 1.928.268 1.926 7.709.028l6.102-1.557-4.755 4.778-4.756 4.777.902 1.47c1.051 1.713.513 1.763 10.233-.948 8.556-2.386 8.173-2.174 7.045-3.896l-.87-1.327-3.317 1.018c-1.825.56-4.521 1.373-5.992 1.805l-2.674.787 4.698-4.402 4.697-4.401-1.099-1.77c-.754-1.213-1.391-1.685-2.024-1.497-2.183.646-9.697 2.463-10.104 2.443-.245-.011 1.471-1.788 3.813-3.949 4.072-3.755 4.23-3.989 3.621-5.326-.842-1.847-1.015-1.798-4.141 1.153m101.566-1.296c-.152.396-.977 1.239-1.834 1.872l-1.557 1.151-1.031-1.107c-.567-.609-1.454-1.03-1.971-.936-.517.094-1.032-.09-1.144-.409-.137-.389.749-.501 2.69-.34 1.592.132 3.344-.021 3.892-.34 1.28-.743 1.282-.743.955.109m178.504 1.531l-1.218 2.242 4.408 4.431 4.408 4.431-6.06-1.624c-3.334-.893-6.123-1.552-6.2-1.464-.076.088-.627 1.129-1.224 2.314l-1.085 2.154 6.464 3.729c8.88 5.121 8.4 4.928 9.273 3.735 1.126-1.541 1.112-1.556-4.644-4.815-6.623-3.75-6.552-3.855 1.118-1.647l6.138 1.767.947-1.4.947-1.399-4.795-4.679c-2.638-2.574-4.664-4.679-4.504-4.679.161 0 2.541 1.323 5.29 2.941 5.729 3.372 5.755 3.378 6.544 1.648.529-1.162-7.221-6.467-14.314-9.798-.151-.071-.823.88-1.493 2.113m-184.619 3.497c-.032 1.567-6.751 5.233-7.88 4.299-1.536-1.272-.72-2.469 2.407-3.526 3.291-1.114 5.486-1.424 5.473-.773m102.12 2.465c3.848 1.151 3.488 2.121-.688 1.855-3.892-.247-4.278-.421-3.786-1.703.406-1.059 1.335-1.09 4.474-.152m-41.865 2.896c2.448 1.36-.861 4.99-3.416 3.748-1.365-.663-1.726-1.411-2.445-5.064l-.335-1.704 2.52 1.189c1.386.654 3.04 1.478 3.676 1.831m-58.643-.695c0 1.002-.494 1.45-2.398 2.178-1.32.503-2.675 1.248-3.013 1.655-.463.559-.791.591-1.344.132-1.493-1.239-.761-2.372 2.611-4.043 3.657-1.812 4.144-1.803 4.144.078m101.523 1.656c2.693 1.344 1.886 2.368-1.869 2.368-2.408 0-3.932-.836-3.932-2.158 0-1.344 3.289-1.463 5.801-.21m-100.018 1.687c-.202 1.051-6.025 4.133-6.847 3.625-.687-.425-.703-1.34-.024-1.34.284 0 1.655-.722 3.046-1.604 2.864-1.817 4.086-2.034 3.825-.681m98.305 2.084c3.425 1.431 1.716 2.602-2.603 1.783-3.312-.628-4.064-1.209-3.088-2.385.768-.925 2.466-.745 5.691.602m73.889 1.672l-.864 1.47 7.032 4.925 7.032 4.925.953-1.129c1.322-1.565 1.44-1.434-6.177-6.827-7.95-5.629-6.905-5.188-7.976-3.364m-172.516.968c.379.459 2.313 2.527 4.299 4.594 3.386 3.527 4.385 5.266 3.023 5.266-.815 0-3.692-1.746-3.692-2.241 0-.224-1.203-1.669-2.674-3.21-1.608-1.686-2.673-3.29-2.673-4.024 0-1.415.73-1.579 1.717-.385m45.876 6.919c0 3.387.212 5.615.535 5.615.323 0 .535-2.228.535-5.615s-.212-5.615-.535-5.615c-.323 0-.535 2.228-.535 5.615m49.01-4.798c.597 1.554-6.293 9.344-8.264 9.344-.302 0-.644.283-.759.629-.116.346-.492.456-.836.243-.409-.253.449-1.44 2.485-3.437 1.711-1.678 3.755-4.073 4.541-5.323 1.506-2.393 2.314-2.809 2.833-1.456m74.681 1.27c-1.154 1.465-1.162 1.586-.424 6.499.907 6.036 1.056 5.838-2.353 3.125-2.684-2.138-2.811-2.18-3.823-1.263-1.546 1.399-1.584 1.349 5.503 7.124l6.551 5.337 1.25-1.16 1.25-1.16-2.186-1.887c-1.838-1.585-2.186-2.207-2.186-3.901 0-2.26-.695-2.155 6.15-.926 2.795.502 3.944.013 5.115-2.175.416-.777-.244-.957-5.648-1.539-6.889-.742-6.413-.332-6.983-6.016-.406-4.038-.551-4.172-2.216-2.058m-252.962 4.304c-8.868 2.166-9.869 13.084-1.597 17.416l2.932 1.534 2.739-2.293 2.739-2.293-1.043-1.42c-3.342-4.551-3.562-4.716-4.799-3.597l-1.134 1.026 1.359 1.418c2.003 2.091.453 3.632-2.308 2.295-4.793-2.321-3.517-8.659 2.175-10.805 2.989-1.127 6.623 1.929 6.103 5.132-.365 2.253 1.887 4.115 2.835 2.344 1.719-3.212-2.103-10.7-5.481-10.738-.357-.004-1.131-.105-1.719-.224-.589-.12-1.849-.027-2.801.205m239.444 11.576c-6.788 6.133-1.747 12.315 6.405 7.856 3.103-1.697 3.753-1.881 4.488-1.271 2.199 1.825-.548 5.74-3.672 5.233-1.923-.312-4.784 1.768-3.513 2.554 5.452 3.369 13.271-3.261 10.644-9.026-1.502-3.297-5.235-3.503-9.722-.535-3.612 2.389-6.035.807-3.295-2.15 1.101-1.188 1.704-1.435 2.915-1.192 1.204.24 1.699.043 2.341-.937 2.021-3.085-3.29-3.514-6.591-.532m-229.474 2.784c-6.114 3.931-6.631 11.179-1.065 14.93 3.931 2.649 8.611 1.625 11.978-2.619 5.875-7.407-2.988-17.406-10.913-12.311m8.112 3.272c2.499 2.499 1.698 6.005-2.007 8.785-4.651 3.49-10.113-2.272-6.504-6.86 2.832-3.6 6.098-4.338 8.511-1.925m3.732 11.15l-5.586 6.68 1.308 1.059 1.307 1.059 2.477-2.765 2.477-2.765 1.116 1.418c1.111 1.413 1.16 2.487.349 7.795-.155 1.017.209 1.802 1.335 2.881l1.548 1.483.344-1.374c.19-.755.383-2.924.43-4.819.083-3.371.112-3.436 1.325-2.977 1.637.62 3.488.114 4.811-1.315 2.928-3.162 1.322-6.073-6.853-12.418-.667-.517-1.745.505-6.388 6.058m204.362-4.545l-1.202 1.28 5.403 6.239c6.392 7.379 5.217 7.109 10.612 2.439 4.219-3.651 4.354-3.839 3.472-4.813-1.158-1.28-.725-1.45-4.322 1.698l-3.098 2.711-2.42-2.578a176.301 176.301 0 01-4.831-5.416l-2.411-2.84-1.203 1.28m-195.276 4.485c4.751 4.292.916 6.778-3.938 2.552l-1.506-1.312 1.239-1.569c1.583-2.004 1.627-2 4.205.329m186.735 1.28c-5.893 2.994-6.456 9.863-1.199 14.613 3.56 3.215 7.403 3.217 11.156.004 7.55-6.462-1.079-19.129-9.957-14.617m-179.177 2.691c-.388.62-.628 1.195-.534 1.278.094.083 1.554 1.029 3.246 2.103 3.843 2.441 4.235 1.973-3.779 4.523-6.398 2.035-9.369 3.907-8.076 5.086 3.047 2.781 11.479 7.27 12.088 6.436 1.011-1.382 1.068-1.311-3.372-4.2l-4.06-2.642 7.142-2.283c10.19-3.258 10.39-3.638 4.092-7.773-6.025-3.957-5.887-3.905-6.747-2.528m184.932.307c3.681 2.174 4.796 7.221 2.097 9.492-2.898 2.439-6.417 1.174-8.456-3.038-2.353-4.862 1.843-9.122 6.359-6.454m-20.681 6.612c-2.288 1.184-4.364 2.356-4.612 2.605-.529.528 7.642 15.003 8.478 15.018 2.262.042 2.636-1.428 1.088-4.272-1.637-3.008-1.67-2.899 1.374-4.55 4.494-2.437 4.746-7.929.466-10.142-2.118-1.095-2.066-1.106-6.794 1.341m-151.513 1.967c-5.524 2.01-7.727 11.139-3.601 14.92 5.412 4.96 12.931 2.456 14.79-4.924 1.625-6.456-4.899-12.284-11.189-9.996m157.195.397c1.158 1.395.419 3.152-1.851 4.401l-2.144 1.18-1.168-2.133-1.169-2.134 1.708-1.042c2.028-1.236 3.74-1.337 4.624-.272m-150.421 3.813c1.775 1.775 1.537 5.195-.552 7.933-3.544 4.648-10.071 1.535-8.41-4.01 1.523-5.083 5.89-6.995 8.962-3.923m130.235.829c-5.214 2.582-5.795 9.584-1.195 14.42 5.748 6.042 16.153.127 13.948-7.929-1.814-6.629-7.07-9.304-12.753-6.491m-123.859.029c-.582 1.914-1.923 16.69-1.549 17.055 2.003 1.951 3.168 1.239 6.922-4.23 2.018-2.941 3.736-5.28 3.818-5.198.081.082-.115 2.981-.438 6.443-.613 6.592-.536 6.947 1.627 7.474 1.23.299 1.729-.265 6.229-7.048l4.893-7.373-1.612-.696c-.887-.382-1.662-.623-1.722-.534-.06.088-1.505 2.398-3.21 5.132-3.631 5.821-3.549 5.803-2.951.643.791-6.822.696-7.766-.85-8.47-2.095-.955-2.128-.93-5.696 4.218-3.888 5.611-3.92 5.595-2.87-1.399.438-2.914.625-5.455.415-5.646-.898-.82-2.799-1.054-3.006-.371m130.199 2.595c1.363.73 3.175 4.345 3.175 6.334 0 6.698-8.325 6.278-10.047-.506-1.172-4.616 2.817-7.998 6.872-5.828m-16.635 1.102c-1.051.387-1.827 1.598-3.396 5.306-2.426 5.728-2.106 5.612-3.546 1.285-1.133-3.405-2.527-4.278-4.184-2.621-.228.228 4.558 14.659 5.194 15.663.288.455.94.575 1.863.343 1.654-.415 1.666-.477.635-3.4-.703-1.992-.694-2.414.085-4.048l.869-1.823 3.525 2.941c3.008 2.511 3.757 2.897 5.112 2.634 2.831-.548 2.566-1.157-2.087-4.79-5.224-4.08-5.104-3.747-2.976-8.246 2.051-4.334 2.031-4.393-1.094-3.244m-91.146 3.846c-4.663 14.22-5.035 16.187-3.152 16.66 1.751.439 1.323 1.24 3.876-7.249 1.204-4.005 2.329-7.646 2.5-8.091.216-.562-.198-.988-1.35-1.39-1.257-.438-1.713-.421-1.874.07m4.906 2.12c-.964 4.088-3.09 15.503-2.919 15.674.459.459 11.828 2.417 12.511 2.155 2.412-.925.675-2.334-3.995-3.241l-4.732-.919.386-2.11c.519-2.838.435-2.805 4.886-1.889 2.955.608 4.014.652 4.32.18 1.006-1.552.086-2.237-4.019-2.992l-4.144-.762.345-1.912c.19-1.051.373-1.946.408-1.988.034-.042 2.043.304 4.463.768 4.736.91 4.658.921 5.165-.731.317-1.035-.066-1.188-5.691-2.273-7.303-1.409-6.641-1.413-6.984.04m62.579.768c-.596.158-.858.592-.694 1.147.146.491.891 3.419 1.656 6.507a907.96 907.96 0 001.901 7.558l.509 1.942 5.745-1.455c5.368-1.36 5.735-1.538 5.6-2.712-.197-1.696.057-1.666-4.401-.52-4.799 1.235-4.204 1.817-6.179-6.053-1.651-6.581-1.922-7.002-4.137-6.414m-10.513 1.053c-2.485.415-4.619.856-4.743.979-.244.245 2.007 16.46 2.33 16.783.185.185 12.682-1.495 12.927-1.738.062-.061-.033-.668-.211-1.35-.345-1.316-.662-1.326-7.712-.237-1.694.262-1.969.145-2.266-.961-.948-3.545-.898-3.584 5.665-4.502 2.515-.352 2.969-.867 2.048-2.321-.39-.617-1.177-.653-4.403-.205-4.574.635-4.162.779-4.545-1.583l-.303-1.869 3.133-.358c5.622-.642 6.075-.808 6.075-2.229 0-1.541-.93-1.589-7.995-.409m-33.489 1.135c.159.507.892 3.929 1.629 7.605.738 3.677 1.468 7.226 1.624 7.888.319 1.353 3.845 1.796 4.261.535.121-.368.999-3.195 1.95-6.284l1.73-5.615 1.565 6.551 1.564 6.551h1.793c1.989 0 1.904.194 5.128-11.752 1.487-5.51 1.836-4.781 2.36 4.934l.339 6.283h1.876c1.676 0 1.846-.129 1.589-1.203-.158-.662-.459-4.536-.668-8.61l-.379-7.408-3.535.375c-1.944.206-3.553.411-3.577.455-.023.045-.595 2.247-1.272 4.894-1.752 6.858-1.846 6.867-3.223.306l-1.242-5.921h-2.074c-1.182 0-2.169.287-2.297.668-.123.368-.931 2.955-1.796 5.749-1.743 5.633-1.784 5.611-3.039-1.653l-.885-5.129-1.856-.07c-1.526-.057-1.803.094-1.565.851" fill-rule="evenodd"/></svg>